<?xml version="1.0" encoding="UTF-8"?>
<svg version="1.1" xmlns="http://www.w3.org/2000/svg" viewBox="0 0 128 128" width="128" height="128">
<path d="M0 0 C42.24 0 84.48 0 128 0 C128 42.24 128 84.48 128 128 C85.76 128 43.52 128 0 128 C0 85.76 0 43.52 0 0 Z " fill="#275057" transform="translate(0,0)"/>
<path d="M0 0 C9.57 0 19.14 0 29 0 C29 3.63 29 7.26 29 11 C19.76 11.33 10.52 11.66 1 12 C0.67 30.48 0.34 48.96 0 68 C-2.97 68 -5.94 68 -9 68 C-9 49.19 -9 30.38 -9 11 C-6.03 11 -3.06 11 0 11 C0 7.37 0 3.74 0 0 Z " fill="#D77C27" transform="translate(14,22)"/>
<path d="M0 0 C3.3 0 6.6 0 10 0 C10 18.81 10 37.62 10 57 C6.7 57 3.4 57 0 57 C0 38.19 0 19.38 0 0 Z " fill="#D17A29" transform="translate(62,33)"/>
<path d="M0 0 C3.3 0 6.6 0 10 0 C10 3.96 10 7.92 10 12 C6.7 12 3.4 12 0 12 C0 15.3 0 18.6 0 22 C-9.57 22 -19.14 22 -29 22 C-29 18.37 -29 14.74 -29 11 C-19.43 11 -9.86 11 0 11 C0 7.37 0 3.74 0 0 Z " fill="#D37B28" transform="translate(43,79)"/>
<path d="M0 0 C9.57 0 19.14 0 29 0 C29 3.63 29 7.26 29 11 C19.43 11 9.86 11 0 11 C0 7.37 0 3.74 0 0 Z " fill="#D47B28" transform="translate(72,90)"/>
<path d="M0 0 C6.93 0 13.86 0 21 0 C21 4.29 21 8.58 21 13 C14.07 13 7.14 13 0 13 C0 8.71 0 4.42 0 0 Z " fill="#D17A29" transform="translate(100,44)"/>
<path d="M0 0 C6.93 0 13.86 0 21 0 C21 3.96 21 7.92 21 12 C14.07 12 7.14 12 0 12 C0 8.04 0 4.08 0 0 Z " fill="#D17A29" transform="translate(100,65)"/>
<path d="M0 0 C3.3 0 6.6 0 10 0 C10 3.96 10 7.92 10 12 C6.7 12 3.4 12 0 12 C0 8.04 0 4.08 0 0 Z " fill="#CD792A" transform="translate(43,33)"/>
</svg>
